<svg id="svg" version="1.1" xmlns="http://www.w3.org/2000/svg" xmlns:xlink="http://www.w3.org/1999/xlink" width="400" height="400" viewBox="0, 0, 400,400"><g id="svgg"><path id="path0" d="M75.000 18.750 L 75.000 37.500 43.750 37.500 L 12.500 37.500 12.500 43.750 L 12.500 50.000 6.250 50.000 L 0.000 50.000 0.000 68.750 L 0.000 87.500 6.250 87.500 L 12.500 87.500 12.500 218.750 L 12.500 350.000 6.250 350.000 L 0.000 350.000 0.000 368.750 L 0.000 387.500 6.250 387.500 L 12.500 387.500 12.500 393.750 L 12.500 400.000 118.750 400.000 L 225.000 400.000 225.000 393.750 L 225.000 387.500 231.250 387.500 L 237.500 387.500 237.500 368.750 L 237.500 350.000 231.250 350.000 L 225.000 350.000 225.000 337.500 L 225.000 325.000 262.500 325.000 L 300.000 325.000 300.000 318.750 L 300.000 312.500 306.250 312.500 L 312.500 312.500 312.500 287.500 L 312.500 262.500 318.750 262.500 L 325.000 262.500 325.000 256.250 L 325.000 250.000 356.250 250.000 L 387.500 250.000 387.500 243.750 L 387.500 237.500 393.750 237.500 L 400.000 237.500 400.000 181.250 L 400.000 125.000 393.750 125.000 L 387.500 125.000 387.500 118.750 L 387.500 112.500 306.250 112.500 L 225.000 112.500 225.000 100.000 L 225.000 87.500 231.250 87.500 L 237.500 87.500 237.500 68.750 L 237.500 50.000 231.250 50.000 L 225.000 50.000 225.000 43.750 L 225.000 37.500 193.750 37.500 L 162.500 37.500 162.500 18.750 L 162.500 0.000 118.750 0.000 L 75.000 0.000 75.000 18.750 M150.000 18.750 L 150.000 25.000 118.750 25.000 L 87.500 25.000 87.500 18.750 L 87.500 12.500 118.750 12.500 L 150.000 12.500 150.000 18.750 M212.500 56.250 L 212.500 62.500 218.750 62.500 L 225.000 62.500 225.000 68.750 L 225.000 75.000 218.750 75.000 L 212.500 75.000 212.500 81.250 L 212.500 87.500 118.750 87.500 L 25.000 87.500 25.000 81.250 L 25.000 75.000 18.750 75.000 L 12.500 75.000 12.500 68.750 L 12.500 62.500 18.750 62.500 L 25.000 62.500 25.000 56.250 L 25.000 50.000 118.750 50.000 L 212.500 50.000 212.500 56.250 M212.500 218.750 L 212.500 337.500 118.750 337.500 L 25.000 337.500 25.000 218.750 L 25.000 100.000 118.750 100.000 L 212.500 100.000 212.500 218.750 M237.500 143.750 L 237.500 162.500 256.250 162.500 L 275.000 162.500 275.000 143.750 L 275.000 125.000 281.250 125.000 L 287.500 125.000 287.500 143.750 L 287.500 162.500 306.250 162.500 L 325.000 162.500 325.000 143.750 L 325.000 125.000 331.250 125.000 L 337.500 125.000 337.500 143.750 L 337.500 162.500 356.250 162.500 L 375.000 162.500 375.000 150.000 L 375.000 137.500 381.250 137.500 L 387.500 137.500 387.500 181.250 L 387.500 225.000 381.250 225.000 L 375.000 225.000 375.000 231.250 L 375.000 237.500 343.750 237.500 L 312.500 237.500 312.500 243.750 L 312.500 250.000 306.250 250.000 L 300.000 250.000 300.000 275.000 L 300.000 300.000 293.750 300.000 L 287.500 300.000 287.500 306.250 L 287.500 312.500 281.250 312.500 L 275.000 312.500 275.000 293.750 L 275.000 275.000 256.250 275.000 L 237.500 275.000 237.500 293.750 L 237.500 312.500 231.250 312.500 L 225.000 312.500 225.000 218.750 L 225.000 125.000 231.250 125.000 L 237.500 125.000 237.500 143.750 M262.500 143.750 L 262.500 150.000 256.250 150.000 L 250.000 150.000 250.000 143.750 L 250.000 137.500 256.250 137.500 L 262.500 137.500 262.500 143.750 M312.500 143.750 L 312.500 150.000 306.250 150.000 L 300.000 150.000 300.000 143.750 L 300.000 137.500 306.250 137.500 L 312.500 137.500 312.500 143.750 M362.500 143.750 L 362.500 150.000 356.250 150.000 L 350.000 150.000 350.000 143.750 L 350.000 137.500 356.250 137.500 L 362.500 137.500 362.500 143.750 M262.500 293.750 L 262.500 300.000 256.250 300.000 L 250.000 300.000 250.000 293.750 L 250.000 287.500 256.250 287.500 L 262.500 287.500 262.500 293.750 M212.500 356.250 L 212.500 362.500 218.750 362.500 L 225.000 362.500 225.000 368.750 L 225.000 375.000 218.750 375.000 L 212.500 375.000 212.500 381.250 L 212.500 387.500 118.750 387.500 L 25.000 387.500 25.000 381.250 L 25.000 375.000 18.750 375.000 L 12.500 375.000 12.500 368.750 L 12.500 362.500 18.750 362.500 L 25.000 362.500 25.000 356.250 L 25.000 350.000 118.750 350.000 L 212.500 350.000 212.500 356.250 " stroke="none" fill="#040404" fill-rule="evenodd"></path><path id="path1" d="M87.500 18.750 L 87.500 25.000 112.500 25.000 L 137.500 25.000 137.500 18.750 L 137.500 12.500 112.500 12.500 L 87.500 12.500 87.500 18.750 M25.000 56.250 L 25.000 62.500 18.750 62.500 L 12.500 62.500 12.500 68.750 L 12.500 75.000 18.750 75.000 L 25.000 75.000 25.000 81.250 L 25.000 87.500 100.000 87.500 L 175.000 87.500 175.000 81.250 L 175.000 75.000 181.250 75.000 L 187.500 75.000 187.500 68.750 L 187.500 62.500 181.250 62.500 L 175.000 62.500 175.000 56.250 L 175.000 50.000 100.000 50.000 L 25.000 50.000 25.000 56.250 M25.000 356.250 L 25.000 362.500 18.750 362.500 L 12.500 362.500 12.500 368.750 L 12.500 375.000 18.750 375.000 L 25.000 375.000 25.000 381.250 L 25.000 387.500 100.000 387.500 L 175.000 387.500 175.000 381.250 L 175.000 375.000 181.250 375.000 L 187.500 375.000 187.500 368.750 L 187.500 362.500 181.250 362.500 L 175.000 362.500 175.000 356.250 L 175.000 350.000 100.000 350.000 L 25.000 350.000 25.000 356.250 " stroke="none" fill="#646464" fill-rule="evenodd"></path><path id="path2" d="M225.000 218.750 L 225.000 312.500 231.250 312.500 L 237.500 312.500 237.500 293.750 L 237.500 275.000 256.250 275.000 L 275.000 275.000 275.000 293.750 L 275.000 312.500 281.250 312.500 L 287.500 312.500 287.500 306.250 L 287.500 300.000 293.750 300.000 L 300.000 300.000 300.000 275.000 L 300.000 250.000 306.250 250.000 L 312.500 250.000 312.500 243.750 L 312.500 237.500 337.500 237.500 L 362.500 237.500 362.500 225.000 L 362.500 212.500 368.750 212.500 L 375.000 212.500 375.000 187.500 L 375.000 162.500 356.250 162.500 L 337.500 162.500 337.500 143.750 L 337.500 125.000 331.250 125.000 L 325.000 125.000 325.000 143.750 L 325.000 162.500 306.250 162.500 L 287.500 162.500 287.500 143.750 L 287.500 125.000 281.250 125.000 L 275.000 125.000 275.000 143.750 L 275.000 162.500 256.250 162.500 L 237.500 162.500 237.500 143.750 L 237.500 125.000 231.250 125.000 L 225.000 125.000 225.000 218.750 " stroke="none" fill="#a48c7c" fill-rule="evenodd"></path><path id="path3" d="M25.000 218.750 L 25.000 337.500 106.250 337.500 L 187.500 337.500 187.500 218.750 L 187.500 100.000 106.250 100.000 L 25.000 100.000 25.000 218.750 " stroke="none" fill="#fcc404" fill-rule="evenodd"></path><path id="path4" d="M137.500 18.750 L 137.500 25.000 143.750 25.000 L 150.000 25.000 150.000 18.750 L 150.000 12.500 143.750 12.500 L 137.500 12.500 137.500 18.750 M175.000 56.250 L 175.000 62.500 181.250 62.500 L 187.500 62.500 187.500 68.750 L 187.500 75.000 181.250 75.000 L 175.000 75.000 175.000 81.250 L 175.000 87.500 193.750 87.500 L 212.500 87.500 212.500 81.250 L 212.500 75.000 218.750 75.000 L 225.000 75.000 225.000 68.750 L 225.000 62.500 218.750 62.500 L 212.500 62.500 212.500 56.250 L 212.500 50.000 193.750 50.000 L 175.000 50.000 175.000 56.250 M175.000 356.250 L 175.000 362.500 181.250 362.500 L 187.500 362.500 187.500 368.750 L 187.500 375.000 181.250 375.000 L 175.000 375.000 175.000 381.250 L 175.000 387.500 193.750 387.500 L 212.500 387.500 212.500 381.250 L 212.500 375.000 218.750 375.000 L 225.000 375.000 225.000 368.750 L 225.000 362.500 218.750 362.500 L 212.500 362.500 212.500 356.250 L 212.500 350.000 193.750 350.000 L 175.000 350.000 175.000 356.250 " stroke="none" fill="#444444" fill-rule="evenodd"></path><path id="path5" d="M375.000 175.000 L 375.000 212.500 368.750 212.500 L 362.500 212.500 362.500 225.000 L 362.500 237.500 368.750 237.500 L 375.000 237.500 375.000 231.250 L 375.000 225.000 381.250 225.000 L 387.500 225.000 387.500 181.250 L 387.500 137.500 381.250 137.500 L 375.000 137.500 375.000 175.000 " stroke="none" fill="#7c544c" fill-rule="evenodd"></path><path id="path6" d="M187.500 218.750 L 187.500 337.500 200.000 337.500 L 212.500 337.500 212.500 218.750 L 212.500 100.000 200.000 100.000 L 187.500 100.000 187.500 218.750 " stroke="none" fill="#fc9c04" fill-rule="evenodd"></path></g></svg>